<svg width="62" height="24" viewBox="0 0 62 24" fill="none" xmlns="http://www.w3.org/2000/svg">
<path d="M21 21L15.8033 15.8033M15.8033 15.8033C17.1605 14.4461 18 12.5711 18 10.5C18 6.35786 14.6421 3 10.5 3C6.35786 3 3 6.35786 3 10.5C3 14.6421 6.35786 18 10.5 18C12.5711 18 14.4461 17.1605 15.8033 15.8033Z" stroke="white" stroke-width="1.5" stroke-linecap="round" stroke-linejoin="round"/>
<path d="M52.8569 17.0817C54.7514 16.857 56.5783 16.4116 58.3111 15.7719C56.8743 14.177 55.9998 12.0656 55.9998 9.75V9.04919C55.9999 9.03281 56 9.01641 56 9C56 5.68629 53.3137 3 50 3C46.6863 3 44 5.68629 44 9L43.9998 9.75C43.9998 12.0656 43.1253 14.177 41.6885 15.7719C43.4214 16.4116 45.2484 16.857 47.1431 17.0818M52.8569 17.0817C51.92 17.1928 50.9666 17.25 49.9998 17.25C49.0332 17.25 48.0799 17.1929 47.1431 17.0818M52.8569 17.0817C52.9498 17.3711 53 17.6797 53 18C53 19.6569 51.6569 21 50 21C48.3431 21 47 19.6569 47 18C47 17.6797 47.0502 17.3712 47.1431 17.0818" stroke="white" stroke-width="1.5" stroke-linecap="round" stroke-linejoin="round"/>
</svg>
