<svg width="62" height="24" viewBox="0 0 62 24" fill="none" xmlns="http://www.w3.org/2000/svg">
<path d="M21 21L15.8033 15.8033M15.8033 15.8033C17.1605 14.4461 18 12.5711 18 10.5C18 6.35786 14.6421 3 10.5 3C6.35786 3 3 6.35786 3 10.5C3 14.6421 6.35786 18 10.5 18C12.5711 18 14.4461 17.1605 15.8033 15.8033Z" stroke="white" stroke-width="1.5" stroke-linecap="round" stroke-linejoin="round"/>
<path d="M52.8559 17.0817C54.7504 16.857 56.5773 16.4116 58.3102 15.7719C56.8734 14.177 55.9988 12.0656 55.9988 9.75V9.04919C55.999 9.03281 55.999 9.01641 55.999 9C55.999 5.68629 53.3127 3 49.999 3C46.6853 3 43.999 5.68629 43.999 9L43.9988 9.75C43.9988 12.0656 43.1243 14.177 41.6875 15.7719C43.4204 16.4116 45.2475 16.857 47.1422 17.0818M52.8559 17.0817C51.919 17.1928 50.9656 17.25 49.9988 17.25C49.0322 17.25 48.0789 17.1929 47.1422 17.0818M52.8559 17.0817C52.9488 17.3711 52.999 17.6797 52.999 18C52.999 19.6569 51.6559 21 49.999 21C48.3422 21 46.999 19.6569 46.999 18C46.999 17.6797 47.0492 17.3712 47.1422 17.0818" stroke="white" stroke-width="1.5" stroke-linecap="round" stroke-linejoin="round"/>
</svg>
