<svg width="114" height="17" viewBox="0 0 114 17" fill="none" xmlns="http://www.w3.org/2000/svg">
<path d="M0 5.78834C0 5.15234 0.119952 4.55564 0.359856 3.99824C0.59976 3.44085 0.924337 2.95491 1.33358 2.54044C1.74989 2.11882 2.23323 1.78653 2.78359 1.54356C3.33396 1.30059 3.92314 1.17911 4.55112 1.17911H11.5154V4.2555H4.55112C4.33944 4.2555 4.14187 4.29481 3.95842 4.37341C3.77496 4.45202 3.61267 4.56279 3.47155 4.70571C3.33749 4.84148 3.23165 5.00227 3.15403 5.18807C3.07642 5.37387 3.03761 5.57396 3.03761 5.78834C3.03761 6.00273 3.07642 6.20639 3.15403 6.39933C3.23165 6.58513 3.33749 6.74949 3.47155 6.89242C3.61267 7.02819 3.77496 7.13538 3.95842 7.21399C4.14187 7.2926 4.33944 7.3319 4.55112 7.3319H7.58873C8.21672 7.3319 8.80589 7.45338 9.35626 7.69635C9.91369 7.93217 10.397 8.26089 10.8063 8.68251C11.2226 9.09699 11.5472 9.5865 11.78 10.151C12.0199 10.7084 12.1399 11.3051 12.1399 11.9411C12.1399 12.5771 12.0199 13.1738 11.78 13.7312C11.5472 14.2886 11.2226 14.7781 10.8063 15.1998C10.397 15.6142 9.91369 15.943 9.35626 16.1859C8.80589 16.4289 8.21672 16.5504 7.58873 16.5504H0.846721V13.474H7.58873C7.80041 13.474 7.99798 13.4347 8.18144 13.3561C8.36489 13.2775 8.52365 13.1703 8.65772 13.0345C8.79884 12.8916 8.90821 12.7272 8.98582 12.5414C9.06344 12.3556 9.10225 12.1555 9.10225 11.9411C9.10225 11.7268 9.06344 11.5267 8.98582 11.3409C8.90821 11.1551 8.79884 10.9943 8.65772 10.8585C8.52365 10.7156 8.36489 10.6048 8.18144 10.5262C7.99798 10.4476 7.80041 10.4083 7.58873 10.4083H4.55112C3.92314 10.4083 3.33396 10.2868 2.78359 10.0438C2.23323 9.80088 1.74989 9.47216 1.33358 9.05768C0.924337 8.63606 0.59976 8.14656 0.359856 7.58916C0.119952 7.02462 0 6.42435 0 5.78834Z" fill="white"/>
<path d="M19.3264 16.5504C18.6279 16.5504 17.9716 16.4182 17.3578 16.1538C16.7439 15.8822 16.2041 15.5142 15.7384 15.0497C15.2798 14.578 14.9164 14.0314 14.6483 13.4097C14.3872 12.7879 14.2567 12.1234 14.2567 11.4159V8.00721H12.849V5.0916H14.2567V0.5038H17.1355V5.0916H21.5173V8.00721H17.1355V11.4159C17.1355 11.7232 17.192 12.0126 17.3049 12.2841C17.4177 12.5486 17.573 12.7808 17.7705 12.9809C17.9681 13.181 18.201 13.3418 18.4691 13.4633C18.7372 13.5776 19.023 13.6348 19.3264 13.6348H21.5173V16.5504H19.3264Z" fill="white"/>
<path d="M26.0367 16.5504H23.1472V5.07016H23.8458L24.7983 6.43149C25.264 6.00273 25.7932 5.67401 26.3859 5.44533C26.9786 5.20951 27.5925 5.0916 28.2275 5.0916H30.7783V8.00721H28.2275C27.9241 8.00721 27.6384 8.06438 27.3702 8.17871C27.1021 8.29305 26.8693 8.45027 26.6717 8.65036C26.4741 8.85045 26.3189 9.08627 26.206 9.35782C26.0931 9.62937 26.0367 9.91879 26.0367 10.2261V16.5504Z" fill="white"/>
<path d="M36.4196 13.742C36.5325 13.7777 36.6454 13.8027 36.7583 13.817C36.8712 13.8241 36.984 13.8277 37.0969 13.8277C37.3792 13.8277 37.6508 13.7884 37.9119 13.7098C38.173 13.6312 38.4164 13.5204 38.6422 13.3775C38.8751 13.2274 39.0797 13.0488 39.2561 12.8415C39.4395 12.6272 39.5877 12.3913 39.7006 12.1341L41.8174 14.2886C41.5493 14.6745 41.2388 15.0211 40.886 15.3284C40.5403 15.6357 40.1628 15.8965 39.7535 16.1109C39.3513 16.3253 38.9244 16.4861 38.4729 16.5932C38.0283 16.7076 37.5697 16.7648 37.0969 16.7648C36.2996 16.7648 35.5481 16.6147 34.8426 16.3146C34.144 16.0144 33.5301 15.5964 33.0009 15.0604C32.4788 14.5245 32.066 13.8884 31.7626 13.1524C31.4592 12.4092 31.3075 11.5946 31.3075 10.7084C31.3075 9.80088 31.4592 8.97193 31.7626 8.22159C32.066 7.47125 32.4788 6.83167 33.0009 6.30286C33.5301 5.77405 34.144 5.36315 34.8426 5.07016C35.5481 4.77717 36.2996 4.63067 37.0969 4.63067C37.5697 4.63067 38.0319 4.68784 38.4834 4.80218C38.935 4.91652 39.3619 5.08088 39.7641 5.29526C40.1734 5.50964 40.5544 5.77405 40.9072 6.08848C41.26 6.39576 41.5704 6.74235 41.8386 7.12824L36.4196 13.742ZM37.9013 7.70707C37.7673 7.65705 37.6332 7.62489 37.4991 7.6106C37.3721 7.59631 37.2381 7.58916 37.0969 7.58916C36.7018 7.58916 36.3278 7.66419 35.975 7.81426C35.6293 7.95718 35.3259 8.16442 35.0648 8.43597C34.8108 8.70753 34.6097 9.03625 34.4615 9.42214C34.3134 9.80088 34.2393 10.2296 34.2393 10.7084C34.2393 10.8156 34.2428 10.9371 34.2498 11.0729C34.264 11.2087 34.2816 11.348 34.3028 11.4909C34.331 11.6267 34.3627 11.7589 34.398 11.8875C34.4333 12.0162 34.4792 12.1305 34.5356 12.2306L37.9013 7.70707Z" fill="white"/>
<path d="M54.1901 16.5504H53.4916L52.3697 14.9747C52.0945 15.2248 51.8017 15.4606 51.4912 15.6821C51.1878 15.8965 50.8667 16.0859 50.528 16.2502C50.1894 16.4074 49.8401 16.5325 49.4802 16.6254C49.1274 16.7183 48.7676 16.7648 48.4007 16.7648C47.6033 16.7648 46.8519 16.629 46.1463 16.3574C45.4477 16.0859 44.8339 15.6928 44.3047 15.1783C43.7825 14.6567 43.3697 14.0207 43.0663 13.2703C42.7629 12.52 42.6112 11.666 42.6112 10.7084C42.6112 9.81517 42.7629 8.99694 43.0663 8.25375C43.3697 7.50341 43.7825 6.86026 44.3047 6.3243C44.8339 5.78834 45.4477 5.37387 46.1463 5.08088C46.8519 4.78074 47.6033 4.63067 48.4007 4.63067C48.7676 4.63067 49.131 4.67712 49.4908 4.77002C49.8507 4.86292 50.1999 4.99155 50.5386 5.15591C50.8773 5.32027 51.1984 5.51322 51.5018 5.73475C51.8122 5.95628 52.1015 6.19567 52.3697 6.45293L53.4916 5.0916H54.1901V16.5504ZM51.2795 10.7084C51.2795 10.3083 51.2019 9.92236 51.0467 9.55077C50.8985 9.17202 50.6939 8.83973 50.4328 8.55388C50.1717 8.26089 49.8648 8.02865 49.512 7.85714C49.1662 7.67849 48.7958 7.58916 48.4007 7.58916C48.0055 7.58916 47.6316 7.65705 47.2788 7.79282C46.933 7.9286 46.6296 8.12869 46.3685 8.3931C46.1145 8.6575 45.9134 8.98622 45.7652 9.37926C45.6171 9.76515 45.543 10.2082 45.543 10.7084C45.543 11.2087 45.6171 11.6553 45.7652 12.0483C45.9134 12.4342 46.1145 12.7594 46.3685 13.0238C46.6296 13.2882 46.933 13.4883 47.2788 13.624C47.6316 13.7598 48.0055 13.8277 48.4007 13.8277C48.7958 13.8277 49.1662 13.742 49.512 13.5704C49.8648 13.3918 50.1717 13.1595 50.4328 12.8737C50.6939 12.5807 50.8985 12.2484 51.0467 11.8768C51.2019 11.4981 51.2795 11.1086 51.2795 10.7084Z" fill="white"/>
<path d="M70.8176 16.5504H67.9387V9.26135C67.9387 9.06126 67.8999 8.87189 67.8223 8.69323C67.7518 8.51458 67.6494 8.35737 67.5154 8.22159C67.3813 8.08581 67.2261 7.9822 67.0497 7.91074C66.8733 7.83213 66.6863 7.79282 66.4887 7.79282C66.2912 7.79282 66.1042 7.83213 65.9278 7.91074C65.7584 7.9822 65.6067 8.08581 65.4727 8.22159C65.3457 8.35737 65.2433 8.51458 65.1657 8.69323C65.0952 8.87189 65.0599 9.06126 65.0599 9.26135V16.5504H62.1705V9.26135C62.1705 9.06126 62.1316 8.87189 62.054 8.69323C61.9835 8.51458 61.8812 8.35737 61.7471 8.22159C61.613 8.08581 61.4578 7.9822 61.2814 7.91074C61.105 7.83213 60.918 7.79282 60.7204 7.79282C60.5229 7.79282 60.3359 7.83213 60.1595 7.91074C59.9902 7.9822 59.8384 8.08581 59.7044 8.22159C59.5774 8.35737 59.4751 8.51458 59.3974 8.69323C59.3269 8.87189 59.2916 9.06126 59.2916 9.26135V16.5504H56.4022V5.07016H57.1007L57.8839 5.94913C58.2861 5.60612 58.7271 5.34171 59.2069 5.15591C59.6938 4.96297 60.1983 4.8665 60.7204 4.8665C61.2496 4.8665 61.7647 4.96654 62.2657 5.16663C62.7737 5.36672 63.2183 5.71331 63.5993 6.20639C63.7757 5.96342 63.9768 5.75619 64.2026 5.58468C64.4284 5.41317 64.6648 5.27382 64.9117 5.16663C65.1657 5.05944 65.4268 4.98441 65.6949 4.94153C65.9631 4.89151 66.2277 4.8665 66.4887 4.8665C67.0885 4.8665 67.6494 4.98083 68.1716 5.20951C68.7008 5.43818 69.1594 5.75261 69.5475 6.15279C69.9426 6.54583 70.2531 7.01033 70.4789 7.54628C70.7047 8.08224 70.8176 8.65393 70.8176 9.26135V16.5504Z" fill="white"/>
<path d="M84.8414 1.17911L79.8563 16.5504H76.8187L71.8548 1.17911H75.3052L78.3322 11.4373L81.3698 1.17911H84.8414Z" fill="white"/>
<path d="M89.4031 1.95089C89.4031 2.22244 89.3502 2.47612 89.2443 2.71195C89.1456 2.94777 89.008 3.155 88.8316 3.33366C88.6552 3.50516 88.447 3.64451 88.2071 3.7517C87.9743 3.85175 87.7238 3.90177 87.4556 3.90177C87.1875 3.90177 86.9335 3.85175 86.6936 3.7517C86.4608 3.64451 86.2561 3.50516 86.0797 3.33366C85.9104 3.155 85.7728 2.94777 85.667 2.71195C85.5682 2.47612 85.5188 2.22244 85.5188 1.95089C85.5188 1.68648 85.5682 1.43637 85.667 1.20055C85.7728 0.957578 85.9104 0.750341 86.0797 0.578834C86.2561 0.400182 86.4608 0.260833 86.6936 0.160787C86.9335 0.0535958 87.1875 0 87.4556 0C87.7238 0 87.9743 0.0535958 88.2071 0.160787C88.447 0.260833 88.6552 0.400182 88.8316 0.578834C89.008 0.750341 89.1456 0.957578 89.2443 1.20055C89.3502 1.43637 89.4031 1.68648 89.4031 1.95089ZM88.9057 16.5504H85.9951V5.07016H88.9057V16.5504Z" fill="white"/>
<path d="M102.464 10.7084C102.464 11.6088 102.312 12.4306 102.009 13.1738C101.705 13.917 101.292 14.5566 100.77 15.0926C100.248 15.6214 99.6343 16.0323 98.9287 16.3253C98.2302 16.6183 97.4787 16.7648 96.6743 16.7648C95.877 16.7648 95.1255 16.6147 94.4199 16.3146C93.7214 16.0144 93.1075 15.5964 92.5783 15.0604C92.0562 14.5245 91.6434 13.8884 91.34 13.1524C91.0366 12.4092 90.8849 11.5946 90.8849 10.7084V0.5038H93.7849V5.86338C93.9401 5.66329 94.1271 5.48463 94.3458 5.32742C94.5716 5.1702 94.8115 5.04158 95.0655 4.94153C95.3266 4.84148 95.5948 4.76645 95.8699 4.71643C96.1451 4.65926 96.4132 4.63067 96.6743 4.63067C97.4787 4.63067 98.2302 4.78432 98.9287 5.0916C99.6343 5.39173 100.248 5.81335 100.77 6.35646C101.292 6.89956 101.705 7.54271 102.009 8.28591C102.312 9.02195 102.464 9.82946 102.464 10.7084ZM99.5532 10.7084C99.5532 10.2654 99.4756 9.85447 99.3203 9.47573C99.1721 9.08984 98.9675 8.75755 98.7064 8.47885C98.4454 8.20015 98.1384 7.9822 97.7856 7.82498C97.4399 7.66777 97.0695 7.58916 96.6743 7.58916C96.2792 7.58916 95.9052 7.67849 95.5524 7.85714C95.2067 8.02865 94.9033 8.26089 94.6422 8.55388C94.3811 8.83973 94.1765 9.17202 94.0283 9.55077C93.8801 9.92236 93.8061 10.3083 93.8061 10.7084C93.8061 11.1515 93.8801 11.5624 94.0283 11.9411C94.1765 12.3199 94.3811 12.6486 94.6422 12.9273C94.9033 13.206 95.2067 13.4275 95.5524 13.5919C95.9052 13.7491 96.2792 13.8277 96.6743 13.8277C97.0695 13.8277 97.4399 13.7491 97.7856 13.5919C98.1384 13.4275 98.4454 13.206 98.7064 12.9273C98.9675 12.6486 99.1721 12.3199 99.3203 11.9411C99.4756 11.5624 99.5532 11.1515 99.5532 10.7084Z" fill="white"/>
<path d="M108.581 13.742C108.694 13.7777 108.807 13.8027 108.92 13.817C109.033 13.8241 109.146 13.8277 109.259 13.8277C109.541 13.8277 109.813 13.7884 110.074 13.7098C110.335 13.6312 110.578 13.5204 110.804 13.3775C111.037 13.2274 111.241 13.0488 111.418 12.8415C111.601 12.6272 111.749 12.3913 111.862 12.1341L113.979 14.2886C113.711 14.6745 113.401 15.0211 113.048 15.3284C112.702 15.6357 112.325 15.8965 111.915 16.1109C111.513 16.3253 111.086 16.4861 110.635 16.5932C110.19 16.7076 109.731 16.7648 109.259 16.7648C108.461 16.7648 107.71 16.6147 107.004 16.3146C106.306 16.0144 105.692 15.5964 105.163 15.0604C104.641 14.5245 104.228 13.8884 103.924 13.1524C103.621 12.4092 103.469 11.5946 103.469 10.7084C103.469 9.80088 103.621 8.97193 103.924 8.22159C104.228 7.47125 104.641 6.83167 105.163 6.30286C105.692 5.77405 106.306 5.36315 107.004 5.07016C107.71 4.77717 108.461 4.63067 109.259 4.63067C109.731 4.63067 110.194 4.68784 110.645 4.80218C111.097 4.91652 111.524 5.08088 111.926 5.29526C112.335 5.50964 112.716 5.77405 113.069 6.08848C113.422 6.39576 113.732 6.74235 114 7.12824L108.581 13.742ZM110.063 7.70707C109.929 7.65705 109.795 7.62489 109.661 7.6106C109.534 7.59631 109.4 7.58916 109.259 7.58916C108.864 7.58916 108.49 7.66419 108.137 7.81426C107.791 7.95718 107.488 8.16442 107.227 8.43597C106.973 8.70753 106.771 9.03625 106.623 9.42214C106.475 9.80088 106.401 10.2296 106.401 10.7084C106.401 10.8156 106.405 10.9371 106.412 11.0729C106.426 11.2087 106.443 11.348 106.465 11.4909C106.493 11.6267 106.524 11.7589 106.56 11.8875C106.595 12.0162 106.641 12.1305 106.697 12.2306L110.063 7.70707Z" fill="white"/>
</svg>
