<svg width="48" height="48" viewBox="0 0 48 48" fill="none" xmlns="http://www.w3.org/2000/svg">
<rect x="0.5" y="0.5" width="47" height="47" rx="7.5" fill="#0F0F0F"/>
<rect x="0.5" y="0.5" width="47" height="47" rx="7.5" stroke="#262626"/>
<path d="M31.114 17.6364C34.6287 21.1511 34.6287 26.8496 31.114 30.3643M28.4626 20.2881C30.5129 22.3384 30.5129 25.6625 28.4626 27.7128M18.75 20.2504L23.4697 15.5307C23.9421 15.0583 24.75 15.3929 24.75 16.0611V31.9398C24.75 32.6079 23.9421 32.9426 23.4697 32.4701L18.75 27.7504H16.5091C15.6297 27.7504 14.8059 27.2439 14.5724 26.3962C14.3622 25.6334 14.25 24.83 14.25 24.0004C14.25 23.1708 14.3622 22.3675 14.5724 21.6047C14.8059 20.7569 15.6297 20.2504 16.5091 20.2504H18.75Z" stroke="white" stroke-width="2" stroke-linecap="round" stroke-linejoin="round"/>
</svg>
